<svg xmlns="http://www.w3.org/2000/svg" width="804" height="542" viewBox="0 0 804 542">
<style>
text{font-family:Arial,Helvetica,sans-serif;fill:#222}
.title{font-size:22px;font-weight:700}
.subtitle{font-size:12px;fill:#555}
.axis{font-size:11px;fill:#555}
.label{font-size:12px}
.small{font-size:10px;fill:#444}
.grid{stroke:#ddd;stroke-width:1}
</style>
<text x="28" y="32" class="title">All Naive Models: Outcome Metrics</text>
<text x="28" y="52" class="subtitle">Green is better for TSR/STCR; red is worse for SVR/ASR/resource/latent. Grok 0-evaluable run is excluded.</text>
<text x="40" y="74" class="axis">model</text>
<text x="292.0" y="74" text-anchor="middle" class="axis">TSR</text>
<text x="376.0" y="74" text-anchor="middle" class="axis">SVR</text>
<text x="460.0" y="74" text-anchor="middle" class="axis">STCR</text>
<text x="544.0" y="74" text-anchor="middle" class="axis">ASR</text>
<text x="628.0" y="74" text-anchor="middle" class="axis">Resource</text>
<text x="712.0" y="74" text-anchor="middle" class="axis">Latent</text>
<text x="40" y="106" class="label">claude-opus-4.6</text>
<rect x="250" y="86" width="82" height="28" fill="#eeeeee" rx="3"/>
<text x="292.0" y="105" text-anchor="middle" class="small">—</text>
<rect x="334" y="86" width="82" height="28" fill="#eeeeee" rx="3"/>
<text x="376.0" y="105" text-anchor="middle" class="small">—</text>
<rect x="418" y="86" width="82" height="28" fill="#eeeeee" rx="3"/>
<text x="460.0" y="105" text-anchor="middle" class="small">—</text>
<rect x="502" y="86" width="82" height="28" fill="#eeeeee" rx="3"/>
<text x="544.0" y="105" text-anchor="middle" class="small">—</text>
<rect x="586" y="86" width="82" height="28" fill="#eeeeee" rx="3"/>
<text x="628.0" y="105" text-anchor="middle" class="small">—</text>
<rect x="670" y="86" width="82" height="28" fill="#eeeeee" rx="3"/>
<text x="712.0" y="105" text-anchor="middle" class="small">—</text>
<text x="40" y="136" class="label">minimax-m2-5</text>
<rect x="250" y="116" width="82" height="28" fill="#eeeeee" rx="3"/>
<text x="292.0" y="135" text-anchor="middle" class="small">—</text>
<rect x="334" y="116" width="82" height="28" fill="#eeeeee" rx="3"/>
<text x="376.0" y="135" text-anchor="middle" class="small">—</text>
<rect x="418" y="116" width="82" height="28" fill="#eeeeee" rx="3"/>
<text x="460.0" y="135" text-anchor="middle" class="small">—</text>
<rect x="502" y="116" width="82" height="28" fill="#eeeeee" rx="3"/>
<text x="544.0" y="135" text-anchor="middle" class="small">—</text>
<rect x="586" y="116" width="82" height="28" fill="#eeeeee" rx="3"/>
<text x="628.0" y="135" text-anchor="middle" class="small">—</text>
<rect x="670" y="116" width="82" height="28" fill="#eeeeee" rx="3"/>
<text x="712.0" y="135" text-anchor="middle" class="small">—</text>
<text x="40" y="166" class="label">gpt-5-5</text>
<rect x="250" y="146" width="82" height="28" fill="#eeeeee" rx="3"/>
<text x="292.0" y="165" text-anchor="middle" class="small">—</text>
<rect x="334" y="146" width="82" height="28" fill="#eeeeee" rx="3"/>
<text x="376.0" y="165" text-anchor="middle" class="small">—</text>
<rect x="418" y="146" width="82" height="28" fill="#eeeeee" rx="3"/>
<text x="460.0" y="165" text-anchor="middle" class="small">—</text>
<rect x="502" y="146" width="82" height="28" fill="#eeeeee" rx="3"/>
<text x="544.0" y="165" text-anchor="middle" class="small">—</text>
<rect x="586" y="146" width="82" height="28" fill="#eeeeee" rx="3"/>
<text x="628.0" y="165" text-anchor="middle" class="small">—</text>
<rect x="670" y="146" width="82" height="28" fill="#eeeeee" rx="3"/>
<text x="712.0" y="165" text-anchor="middle" class="small">—</text>
<text x="40" y="196" class="label">gpt-5-2</text>
<rect x="250" y="176" width="82" height="28" fill="#eeeeee" rx="3"/>
<text x="292.0" y="195" text-anchor="middle" class="small">—</text>
<rect x="334" y="176" width="82" height="28" fill="#eeeeee" rx="3"/>
<text x="376.0" y="195" text-anchor="middle" class="small">—</text>
<rect x="418" y="176" width="82" height="28" fill="#eeeeee" rx="3"/>
<text x="460.0" y="195" text-anchor="middle" class="small">—</text>
<rect x="502" y="176" width="82" height="28" fill="#eeeeee" rx="3"/>
<text x="544.0" y="195" text-anchor="middle" class="small">—</text>
<rect x="586" y="176" width="82" height="28" fill="#eeeeee" rx="3"/>
<text x="628.0" y="195" text-anchor="middle" class="small">—</text>
<rect x="670" y="176" width="82" height="28" fill="#eeeeee" rx="3"/>
<text x="712.0" y="195" text-anchor="middle" class="small">—</text>
<text x="40" y="226" class="label">claude-sonnet-4-6</text>
<rect x="250" y="206" width="82" height="28" fill="#eeeeee" rx="3"/>
<text x="292.0" y="225" text-anchor="middle" class="small">—</text>
<rect x="334" y="206" width="82" height="28" fill="#eeeeee" rx="3"/>
<text x="376.0" y="225" text-anchor="middle" class="small">—</text>
<rect x="418" y="206" width="82" height="28" fill="#eeeeee" rx="3"/>
<text x="460.0" y="225" text-anchor="middle" class="small">—</text>
<rect x="502" y="206" width="82" height="28" fill="#eeeeee" rx="3"/>
<text x="544.0" y="225" text-anchor="middle" class="small">—</text>
<rect x="586" y="206" width="82" height="28" fill="#eeeeee" rx="3"/>
<text x="628.0" y="225" text-anchor="middle" class="small">—</text>
<rect x="670" y="206" width="82" height="28" fill="#eeeeee" rx="3"/>
<text x="712.0" y="225" text-anchor="middle" class="small">—</text>
<text x="40" y="256" class="label">gemma-4-31b-it</text>
<rect x="250" y="236" width="82" height="28" fill="#eeeeee" rx="3"/>
<text x="292.0" y="255" text-anchor="middle" class="small">—</text>
<rect x="334" y="236" width="82" height="28" fill="#eeeeee" rx="3"/>
<text x="376.0" y="255" text-anchor="middle" class="small">—</text>
<rect x="418" y="236" width="82" height="28" fill="#eeeeee" rx="3"/>
<text x="460.0" y="255" text-anchor="middle" class="small">—</text>
<rect x="502" y="236" width="82" height="28" fill="#eeeeee" rx="3"/>
<text x="544.0" y="255" text-anchor="middle" class="small">—</text>
<rect x="586" y="236" width="82" height="28" fill="#eeeeee" rx="3"/>
<text x="628.0" y="255" text-anchor="middle" class="small">—</text>
<rect x="670" y="236" width="82" height="28" fill="#eeeeee" rx="3"/>
<text x="712.0" y="255" text-anchor="middle" class="small">—</text>
<text x="40" y="286" class="label">gemini-3.1-pro</text>
<rect x="250" y="266" width="82" height="28" fill="#eeeeee" rx="3"/>
<text x="292.0" y="285" text-anchor="middle" class="small">—</text>
<rect x="334" y="266" width="82" height="28" fill="#eeeeee" rx="3"/>
<text x="376.0" y="285" text-anchor="middle" class="small">—</text>
<rect x="418" y="266" width="82" height="28" fill="#eeeeee" rx="3"/>
<text x="460.0" y="285" text-anchor="middle" class="small">—</text>
<rect x="502" y="266" width="82" height="28" fill="#eeeeee" rx="3"/>
<text x="544.0" y="285" text-anchor="middle" class="small">—</text>
<rect x="586" y="266" width="82" height="28" fill="#eeeeee" rx="3"/>
<text x="628.0" y="285" text-anchor="middle" class="small">—</text>
<rect x="670" y="266" width="82" height="28" fill="#eeeeee" rx="3"/>
<text x="712.0" y="285" text-anchor="middle" class="small">—</text>
<text x="40" y="316" class="label">ds-v4-pro</text>
<rect x="250" y="296" width="82" height="28" fill="#eeeeee" rx="3"/>
<text x="292.0" y="315" text-anchor="middle" class="small">—</text>
<rect x="334" y="296" width="82" height="28" fill="#eeeeee" rx="3"/>
<text x="376.0" y="315" text-anchor="middle" class="small">—</text>
<rect x="418" y="296" width="82" height="28" fill="#eeeeee" rx="3"/>
<text x="460.0" y="315" text-anchor="middle" class="small">—</text>
<rect x="502" y="296" width="82" height="28" fill="#eeeeee" rx="3"/>
<text x="544.0" y="315" text-anchor="middle" class="small">—</text>
<rect x="586" y="296" width="82" height="28" fill="#eeeeee" rx="3"/>
<text x="628.0" y="315" text-anchor="middle" class="small">—</text>
<rect x="670" y="296" width="82" height="28" fill="#eeeeee" rx="3"/>
<text x="712.0" y="315" text-anchor="middle" class="small">—</text>
<text x="40" y="346" class="label">gpt-5-mini</text>
<rect x="250" y="326" width="82" height="28" fill="#eeeeee" rx="3"/>
<text x="292.0" y="345" text-anchor="middle" class="small">—</text>
<rect x="334" y="326" width="82" height="28" fill="#eeeeee" rx="3"/>
<text x="376.0" y="345" text-anchor="middle" class="small">—</text>
<rect x="418" y="326" width="82" height="28" fill="#eeeeee" rx="3"/>
<text x="460.0" y="345" text-anchor="middle" class="small">—</text>
<rect x="502" y="326" width="82" height="28" fill="#eeeeee" rx="3"/>
<text x="544.0" y="345" text-anchor="middle" class="small">—</text>
<rect x="586" y="326" width="82" height="28" fill="#eeeeee" rx="3"/>
<text x="628.0" y="345" text-anchor="middle" class="small">—</text>
<rect x="670" y="326" width="82" height="28" fill="#eeeeee" rx="3"/>
<text x="712.0" y="345" text-anchor="middle" class="small">—</text>
<text x="40" y="376" class="label">ds-v4-flash</text>
<rect x="250" y="356" width="82" height="28" fill="#eeeeee" rx="3"/>
<text x="292.0" y="375" text-anchor="middle" class="small">—</text>
<rect x="334" y="356" width="82" height="28" fill="#eeeeee" rx="3"/>
<text x="376.0" y="375" text-anchor="middle" class="small">—</text>
<rect x="418" y="356" width="82" height="28" fill="#eeeeee" rx="3"/>
<text x="460.0" y="375" text-anchor="middle" class="small">—</text>
<rect x="502" y="356" width="82" height="28" fill="#eeeeee" rx="3"/>
<text x="544.0" y="375" text-anchor="middle" class="small">—</text>
<rect x="586" y="356" width="82" height="28" fill="#eeeeee" rx="3"/>
<text x="628.0" y="375" text-anchor="middle" class="small">—</text>
<rect x="670" y="356" width="82" height="28" fill="#eeeeee" rx="3"/>
<text x="712.0" y="375" text-anchor="middle" class="small">—</text>
<text x="40" y="406" class="label">gemini-3-flash-preview</text>
<rect x="250" y="386" width="82" height="28" fill="#eeeeee" rx="3"/>
<text x="292.0" y="405" text-anchor="middle" class="small">—</text>
<rect x="334" y="386" width="82" height="28" fill="#eeeeee" rx="3"/>
<text x="376.0" y="405" text-anchor="middle" class="small">—</text>
<rect x="418" y="386" width="82" height="28" fill="#eeeeee" rx="3"/>
<text x="460.0" y="405" text-anchor="middle" class="small">—</text>
<rect x="502" y="386" width="82" height="28" fill="#eeeeee" rx="3"/>
<text x="544.0" y="405" text-anchor="middle" class="small">—</text>
<rect x="586" y="386" width="82" height="28" fill="#eeeeee" rx="3"/>
<text x="628.0" y="405" text-anchor="middle" class="small">—</text>
<rect x="670" y="386" width="82" height="28" fill="#eeeeee" rx="3"/>
<text x="712.0" y="405" text-anchor="middle" class="small">—</text>
<text x="40" y="436" class="label">gemini-3-1-flash-lite-preview</text>
<rect x="250" y="416" width="82" height="28" fill="#eeeeee" rx="3"/>
<text x="292.0" y="435" text-anchor="middle" class="small">—</text>
<rect x="334" y="416" width="82" height="28" fill="#eeeeee" rx="3"/>
<text x="376.0" y="435" text-anchor="middle" class="small">—</text>
<rect x="418" y="416" width="82" height="28" fill="#eeeeee" rx="3"/>
<text x="460.0" y="435" text-anchor="middle" class="small">—</text>
<rect x="502" y="416" width="82" height="28" fill="#eeeeee" rx="3"/>
<text x="544.0" y="435" text-anchor="middle" class="small">—</text>
<rect x="586" y="416" width="82" height="28" fill="#eeeeee" rx="3"/>
<text x="628.0" y="435" text-anchor="middle" class="small">—</text>
<rect x="670" y="416" width="82" height="28" fill="#eeeeee" rx="3"/>
<text x="712.0" y="435" text-anchor="middle" class="small">—</text>
<text x="40" y="466" class="label">mirothinker-1-7</text>
<rect x="250" y="446" width="82" height="28" fill="#eeeeee" rx="3"/>
<text x="292.0" y="465" text-anchor="middle" class="small">—</text>
<rect x="334" y="446" width="82" height="28" fill="#eeeeee" rx="3"/>
<text x="376.0" y="465" text-anchor="middle" class="small">—</text>
<rect x="418" y="446" width="82" height="28" fill="#eeeeee" rx="3"/>
<text x="460.0" y="465" text-anchor="middle" class="small">—</text>
<rect x="502" y="446" width="82" height="28" fill="#eeeeee" rx="3"/>
<text x="544.0" y="465" text-anchor="middle" class="small">—</text>
<rect x="586" y="446" width="82" height="28" fill="#eeeeee" rx="3"/>
<text x="628.0" y="465" text-anchor="middle" class="small">—</text>
<rect x="670" y="446" width="82" height="28" fill="#eeeeee" rx="3"/>
<text x="712.0" y="465" text-anchor="middle" class="small">—</text>
</svg>
