<svg xmlns="http://www.w3.org/2000/svg" width="980" height="640" viewBox="0 0 980 640">
<style>
text{font-family:Arial,Helvetica,sans-serif;fill:#222}
.title{font-size:22px;font-weight:700}
.subtitle{font-size:12px;fill:#555}
.axis{font-size:11px;fill:#555}
.label{font-size:12px}
.small{font-size:10px;fill:#444}
.grid{stroke:#ddd;stroke-width:1}
</style>
<text x="28" y="32" class="title">Naive Models: Task Success vs Attack Success</text>
<text x="28" y="52" class="subtitle">Right-lower is better: high TSR and low ASR. Bubble size encodes STCR.</text>
<rect x="80" y="80" width="780" height="460" fill="#fafafa" stroke="#bbb"/>
<line x1="80.0" y1="80" x2="80.0" y2="540" class="grid"/>
<line x1="80" y1="540.0" x2="860" y2="540.0" class="grid"/>
<text x="80.0" y="560" text-anchor="middle" class="axis">0</text>
<text x="68" y="544.0" text-anchor="end" class="axis">0</text>
<line x1="158.0" y1="80" x2="158.0" y2="540" class="grid"/>
<line x1="80" y1="494.0" x2="860" y2="494.0" class="grid"/>
<text x="158.0" y="560" text-anchor="middle" class="axis">10</text>
<text x="68" y="498.0" text-anchor="end" class="axis">10</text>
<line x1="236.0" y1="80" x2="236.0" y2="540" class="grid"/>
<line x1="80" y1="448.0" x2="860" y2="448.0" class="grid"/>
<text x="236.0" y="560" text-anchor="middle" class="axis">20</text>
<text x="68" y="452.0" text-anchor="end" class="axis">20</text>
<line x1="314.0" y1="80" x2="314.0" y2="540" class="grid"/>
<line x1="80" y1="402.0" x2="860" y2="402.0" class="grid"/>
<text x="314.0" y="560" text-anchor="middle" class="axis">30</text>
<text x="68" y="406.0" text-anchor="end" class="axis">30</text>
<line x1="392.0" y1="80" x2="392.0" y2="540" class="grid"/>
<line x1="80" y1="356.0" x2="860" y2="356.0" class="grid"/>
<text x="392.0" y="560" text-anchor="middle" class="axis">40</text>
<text x="68" y="360.0" text-anchor="end" class="axis">40</text>
<line x1="470.0" y1="80" x2="470.0" y2="540" class="grid"/>
<line x1="80" y1="310.0" x2="860" y2="310.0" class="grid"/>
<text x="470.0" y="560" text-anchor="middle" class="axis">50</text>
<text x="68" y="314.0" text-anchor="end" class="axis">50</text>
<line x1="548.0" y1="80" x2="548.0" y2="540" class="grid"/>
<line x1="80" y1="264.0" x2="860" y2="264.0" class="grid"/>
<text x="548.0" y="560" text-anchor="middle" class="axis">60</text>
<text x="68" y="268.0" text-anchor="end" class="axis">60</text>
<line x1="626.0" y1="80" x2="626.0" y2="540" class="grid"/>
<line x1="80" y1="218.0" x2="860" y2="218.0" class="grid"/>
<text x="626.0" y="560" text-anchor="middle" class="axis">70</text>
<text x="68" y="222.0" text-anchor="end" class="axis">70</text>
<line x1="704.0" y1="80" x2="704.0" y2="540" class="grid"/>
<line x1="80" y1="172.0" x2="860" y2="172.0" class="grid"/>
<text x="704.0" y="560" text-anchor="middle" class="axis">80</text>
<text x="68" y="176.0" text-anchor="end" class="axis">80</text>
<line x1="782.0" y1="80" x2="782.0" y2="540" class="grid"/>
<line x1="80" y1="126.0" x2="860" y2="126.0" class="grid"/>
<text x="782.0" y="560" text-anchor="middle" class="axis">90</text>
<text x="68" y="130.0" text-anchor="end" class="axis">90</text>
<line x1="860.0" y1="80" x2="860.0" y2="540" class="grid"/>
<line x1="80" y1="80.0" x2="860" y2="80.0" class="grid"/>
<text x="860.0" y="560" text-anchor="middle" class="axis">100</text>
<text x="68" y="84.0" text-anchor="end" class="axis">100</text>
<text x="470.0" y="598" text-anchor="middle" class="label">TSR: task success rate (%)</text>
<text x="22" y="310.0" transform="rotate(-90 22 310.0)" text-anchor="middle" class="label">ASR: attack success rate (%)</text>
<rect x="626.0" y="80" width="234.0" height="161.0" fill="#e8f5e9" opacity="0.8"/>
<text x="743.0" y="102" text-anchor="middle" class="small">desired zone</text>
<circle cx="744.3" cy="496.2" r="38.7" fill="#08306b" fill-opacity="0.78" stroke="#111"/>
<text x="734.3" y="486.2" text-anchor="end" class="small">claude-opus-4.6</text>
<circle cx="749.3" cy="439.2" r="37.6" fill="#08306b" fill-opacity="0.78" stroke="#111"/>
<text x="739.3" y="457.2" text-anchor="end" class="small">minimax-m2-5</text>
<circle cx="729.2" cy="505.0" r="37.1" fill="#08306b" fill-opacity="0.78" stroke="#111"/>
<text x="719.2" y="495.0" text-anchor="end" class="small">gpt-5-5</text>
<circle cx="673.8" cy="474.3" r="35.5" fill="#08306b" fill-opacity="0.78" stroke="#111"/>
<text x="663.8" y="492.3" text-anchor="end" class="small">gpt-5-2</text>
<circle cx="719.1" cy="430.5" r="33.8" fill="#08306b" fill-opacity="0.78" stroke="#111"/>
<text x="709.1" y="420.5" text-anchor="end" class="small">claude-sonnet-4-6</text>
<circle cx="673.8" cy="364.8" r="31.7" fill="#08306b" fill-opacity="0.78" stroke="#111"/>
<text x="663.8" y="382.8" text-anchor="end" class="small">gemma-4-31b-it</text>
<circle cx="719.7" cy="355.0" r="31.2" fill="#08306b" fill-opacity="0.78" stroke="#111"/>
<text x="709.7" y="345.0" text-anchor="end" class="small">gemini-3.1-pro</text>
<circle cx="686.7" cy="325.3" r="28.7" fill="#08306b" fill-opacity="0.78" stroke="#111"/>
<text x="676.7" y="343.3" text-anchor="end" class="small">ds-v4-pro</text>
<circle cx="613.4" cy="364.8" r="28.1" fill="#08306b" fill-opacity="0.78" stroke="#111"/>
<text x="623.4" y="354.8" text-anchor="start" class="small">gpt-5-mini</text>
<circle cx="744.3" cy="294.7" r="26.5" fill="#08306b" fill-opacity="0.78" stroke="#111"/>
<text x="734.3" y="312.7" text-anchor="end" class="small">ds-v4-flash</text>
<circle cx="677.7" cy="283.5" r="26.1" fill="#08306b" fill-opacity="0.78" stroke="#111"/>
<text x="667.7" y="273.5" text-anchor="end" class="small">gemini-3-flash-preview</text>
<circle cx="568.1" cy="233.3" r="20.0" fill="#08306b" fill-opacity="0.78" stroke="#111"/>
<text x="578.1" y="251.3" text-anchor="start" class="small">gemini-3-1-flash-lite-p…</text>
<circle cx="85.3" cy="525.8" r="7.3" fill="#2f7fba" fill-opacity="0.78" stroke="#111"/>
<text x="95.3" y="515.8" text-anchor="start" class="small">mirothinker-1-7</text>
</svg>
