<svg xmlns="http://www.w3.org/2000/svg" width="1120" height="720" viewBox="0 0 1120 720">
<style>
text{font-family:Arial,Helvetica,sans-serif;fill:#222}
.title{font-size:22px;font-weight:700}
.subtitle{font-size:12px;fill:#555}
.axis{font-size:11px;fill:#555}
.label{font-size:12px}
.small{font-size:10px;fill:#444}
.grid{stroke:#ddd;stroke-width:1}
</style>
<text x="28" y="32" class="title">Naive Failure Attribution Distribution</text>
<text x="28" y="52" class="subtitle">Aggregated over observed safety failures / latent violations. N=482 attribution labels counted per dimension.</text>
<text x="48" y="86" class="label" font-weight="700">Hazard Channel</text>
<text x="48" y="130" class="small">multi_agent_message</text>
<rect x="258" y="114" width="280.0" height="19" fill="#4e79a7" rx="3"/>
<text x="546.0" y="129" class="small">152 (32%)</text>
<text x="48" y="157" class="small">policy_prompt</text>
<rect x="258" y="141" width="217.4" height="19" fill="#4e79a7" rx="3"/>
<text x="483.4" y="156" class="small">118 (24%)</text>
<text x="48" y="184" class="small">retrieved_content</text>
<rect x="258" y="168" width="141.8" height="19" fill="#4e79a7" rx="3"/>
<text x="407.8" y="183" class="small">77 (16%)</text>
<text x="48" y="211" class="small">tool_output</text>
<rect x="258" y="195" width="70.0" height="19" fill="#4e79a7" rx="3"/>
<text x="336.0" y="210" class="small">38 (8%)</text>
<text x="48" y="238" class="small">memory_state</text>
<rect x="258" y="222" width="62.6" height="19" fill="#4e79a7" rx="3"/>
<text x="328.6" y="237" class="small">34 (7%)</text>
<text x="48" y="265" class="small">user_instruction</text>
<rect x="258" y="249" width="60.8" height="19" fill="#4e79a7" rx="3"/>
<text x="326.8" y="264" class="small">33 (7%)</text>
<text x="568" y="86" class="label" font-weight="700">Failure Mechanism</text>
<text x="568" y="130" class="small">authority_overtrust</text>
<rect x="778" y="114" width="280.0" height="19" fill="#4e79a7" rx="3"/>
<text x="1066.0" y="129" class="small">232 (48%)</text>
<text x="568" y="157" class="small">goal_rewrite_without_authorization</text>
<rect x="778" y="141" width="137.6" height="19" fill="#4e79a7" rx="3"/>
<text x="923.6" y="156" class="small">114 (24%)</text>
<text x="568" y="184" class="small">unsafe_tool_trust</text>
<rect x="778" y="168" width="45.9" height="19" fill="#4e79a7" rx="3"/>
<text x="831.9" y="183" class="small">38 (8%)</text>
<text x="568" y="211" class="small">privilege_boundary_failure</text>
<rect x="778" y="195" width="35.0" height="19" fill="#4e79a7" rx="3"/>
<text x="821.0" y="210" class="small">29 (6%)</text>
<text x="568" y="238" class="small">instruction_data_confusion</text>
<rect x="778" y="222" width="29.0" height="19" fill="#4e79a7" rx="3"/>
<text x="815.0" y="237" class="small">24 (5%)</text>
<text x="568" y="265" class="small">over_compliance</text>
<rect x="778" y="249" width="21.7" height="19" fill="#4e79a7" rx="3"/>
<text x="807.7" y="264" class="small">18 (4%)</text>
<text x="48" y="306" class="label" font-weight="700">First Failed Component</text>
<text x="48" y="350" class="small">instruction_resolver</text>
<rect x="258" y="334" width="280.0" height="19" fill="#4e79a7" rx="3"/>
<text x="546.0" y="349" class="small">177 (37%)</text>
<text x="48" y="377" class="small">planner</text>
<rect x="258" y="361" width="167.7" height="19" fill="#4e79a7" rx="3"/>
<text x="433.7" y="376" class="small">106 (22%)</text>
<text x="48" y="404" class="small">reviewer_agent</text>
<rect x="258" y="388" width="101.2" height="19" fill="#4e79a7" rx="3"/>
<text x="367.2" y="403" class="small">64 (13%)</text>
<text x="48" y="431" class="small">orchestrator</text>
<rect x="258" y="415" width="99.7" height="19" fill="#4e79a7" rx="3"/>
<text x="365.7" y="430" class="small">63 (13%)</text>
<text x="48" y="458" class="small">tool_argument_builder</text>
<rect x="258" y="442" width="47.5" height="19" fill="#4e79a7" rx="3"/>
<text x="313.5" y="457" class="small">30 (6%)</text>
<text x="48" y="485" class="small">reasoner</text>
<rect x="258" y="469" width="42.7" height="19" fill="#4e79a7" rx="3"/>
<text x="308.7" y="484" class="small">27 (6%)</text>
<text x="568" y="306" class="label" font-weight="700">Block Point</text>
<text x="568" y="350" class="small">multi_agent_review_gate</text>
<rect x="778" y="334" width="280.0" height="19" fill="#4e79a7" rx="3"/>
<text x="1066.0" y="349" class="small">152 (32%)</text>
<text x="568" y="377" class="small">privilege_confirmation</text>
<rect x="778" y="361" width="265.3" height="19" fill="#4e79a7" rx="3"/>
<text x="1051.3" y="376" class="small">144 (30%)</text>
<text x="568" y="404" class="small">instruction_data_separation_after…</text>
<rect x="778" y="388" width="116.1" height="19" fill="#4e79a7" rx="3"/>
<text x="902.1" y="403" class="small">63 (13%)</text>
<text x="568" y="431" class="small">memory_integrity_check</text>
<rect x="778" y="415" width="62.6" height="19" fill="#4e79a7" rx="3"/>
<text x="848.6" y="430" class="small">34 (7%)</text>
<text x="568" y="458" class="small">tool_output_trust_gating</text>
<rect x="778" y="442" width="60.8" height="19" fill="#4e79a7" rx="3"/>
<text x="846.8" y="457" class="small">33 (7%)</text>
<text x="568" y="485" class="small">pre_action_verification</text>
<rect x="778" y="469" width="55.3" height="19" fill="#4e79a7" rx="3"/>
<text x="841.3" y="484" class="small">30 (6%)</text>
<text x="48" y="526" class="label" font-weight="700">Impact</text>
<text x="48" y="570" class="small">data_exfiltration</text>
<rect x="258" y="554" width="280.0" height="19" fill="#4e79a7" rx="3"/>
<text x="546.0" y="569" class="small">430 (89%)</text>
<text x="48" y="597" class="small">system_degradation</text>
<rect x="258" y="581" width="15.6" height="19" fill="#4e79a7" rx="3"/>
<text x="281.6" y="596" class="small">24 (5%)</text>
<text x="48" y="624" class="small">hidden_policy_violation</text>
<rect x="258" y="608" width="9.1" height="19" fill="#4e79a7" rx="3"/>
<text x="275.1" y="623" class="small">14 (3%)</text>
<text x="48" y="651" class="small">unauthorized_sensitive_exploration</text>
<rect x="258" y="635" width="5.2" height="19" fill="#4e79a7" rx="3"/>
<text x="271.2" y="650" class="small">8 (2%)</text>
<text x="48" y="678" class="small">dangerous_action</text>
<rect x="258" y="662" width="3.3" height="19" fill="#4e79a7" rx="3"/>
<text x="269.3" y="677" class="small">5 (1%)</text>
<text x="48" y="705" class="small">privilege_misuse</text>
<rect x="258" y="689" width="0.7" height="19" fill="#4e79a7" rx="3"/>
<text x="266.7" y="704" class="small">1 (0%)</text>
</svg>
