<svg xmlns="http://www.w3.org/2000/svg" width="980" height="640" viewBox="0 0 980 640">
<style>
text{font-family:Arial,Helvetica,sans-serif;fill:#222}
.title{font-size:22px;font-weight:700}
.subtitle{font-size:12px;fill:#555}
.axis{font-size:11px;fill:#555}
.label{font-size:12px}
.small{font-size:10px;fill:#444}
.grid{stroke:#ddd;stroke-width:1}
</style>
<text x="28" y="32" class="title">Naive Models: Task Success vs Attack Success</text>
<text x="28" y="52" class="subtitle">Right-lower is better: high TSR and low ASR. Bubble size encodes STCR.</text>
<rect x="80" y="80" width="780" height="460" fill="#fafafa" stroke="#bbb"/>
<line x1="80.0" y1="80" x2="80.0" y2="540" class="grid"/>
<line x1="80" y1="540.0" x2="860" y2="540.0" class="grid"/>
<text x="80.0" y="560" text-anchor="middle" class="axis">0</text>
<text x="68" y="544.0" text-anchor="end" class="axis">0</text>
<line x1="158.0" y1="80" x2="158.0" y2="540" class="grid"/>
<line x1="80" y1="494.0" x2="860" y2="494.0" class="grid"/>
<text x="158.0" y="560" text-anchor="middle" class="axis">10</text>
<text x="68" y="498.0" text-anchor="end" class="axis">10</text>
<line x1="236.0" y1="80" x2="236.0" y2="540" class="grid"/>
<line x1="80" y1="448.0" x2="860" y2="448.0" class="grid"/>
<text x="236.0" y="560" text-anchor="middle" class="axis">20</text>
<text x="68" y="452.0" text-anchor="end" class="axis">20</text>
<line x1="314.0" y1="80" x2="314.0" y2="540" class="grid"/>
<line x1="80" y1="402.0" x2="860" y2="402.0" class="grid"/>
<text x="314.0" y="560" text-anchor="middle" class="axis">30</text>
<text x="68" y="406.0" text-anchor="end" class="axis">30</text>
<line x1="392.0" y1="80" x2="392.0" y2="540" class="grid"/>
<line x1="80" y1="356.0" x2="860" y2="356.0" class="grid"/>
<text x="392.0" y="560" text-anchor="middle" class="axis">40</text>
<text x="68" y="360.0" text-anchor="end" class="axis">40</text>
<line x1="470.0" y1="80" x2="470.0" y2="540" class="grid"/>
<line x1="80" y1="310.0" x2="860" y2="310.0" class="grid"/>
<text x="470.0" y="560" text-anchor="middle" class="axis">50</text>
<text x="68" y="314.0" text-anchor="end" class="axis">50</text>
<line x1="548.0" y1="80" x2="548.0" y2="540" class="grid"/>
<line x1="80" y1="264.0" x2="860" y2="264.0" class="grid"/>
<text x="548.0" y="560" text-anchor="middle" class="axis">60</text>
<text x="68" y="268.0" text-anchor="end" class="axis">60</text>
<line x1="626.0" y1="80" x2="626.0" y2="540" class="grid"/>
<line x1="80" y1="218.0" x2="860" y2="218.0" class="grid"/>
<text x="626.0" y="560" text-anchor="middle" class="axis">70</text>
<text x="68" y="222.0" text-anchor="end" class="axis">70</text>
<line x1="704.0" y1="80" x2="704.0" y2="540" class="grid"/>
<line x1="80" y1="172.0" x2="860" y2="172.0" class="grid"/>
<text x="704.0" y="560" text-anchor="middle" class="axis">80</text>
<text x="68" y="176.0" text-anchor="end" class="axis">80</text>
<line x1="782.0" y1="80" x2="782.0" y2="540" class="grid"/>
<line x1="80" y1="126.0" x2="860" y2="126.0" class="grid"/>
<text x="782.0" y="560" text-anchor="middle" class="axis">90</text>
<text x="68" y="130.0" text-anchor="end" class="axis">90</text>
<line x1="860.0" y1="80" x2="860.0" y2="540" class="grid"/>
<line x1="80" y1="80.0" x2="860" y2="80.0" class="grid"/>
<text x="860.0" y="560" text-anchor="middle" class="axis">100</text>
<text x="68" y="84.0" text-anchor="end" class="axis">100</text>
<text x="470.0" y="598" text-anchor="middle" class="label">TSR: task success rate (%)</text>
<text x="22" y="310.0" transform="rotate(-90 22 310.0)" text-anchor="middle" class="label">ASR: attack success rate (%)</text>
<rect x="626.0" y="80" width="234.0" height="161.0" fill="#e8f5e9" opacity="0.8"/>
<text x="743.0" y="102" text-anchor="middle" class="small">desired zone</text>
<circle cx="713.8" cy="333.0" r="14.9" fill="#08306b" fill-opacity="0.78" stroke="#111"/>
<text x="703.8" y="323.0" text-anchor="end" class="small">claude-opus-4.6</text>
<circle cx="660.0" cy="356.0" r="13.5" fill="#0b3671" fill-opacity="0.78" stroke="#111"/>
<text x="670.0" y="374.0" text-anchor="start" class="small">gpt-5</text>
<circle cx="840.5" cy="310.0" r="13.3" fill="#0c3873" fill-opacity="0.78" stroke="#111"/>
<text x="830.5" y="300.0" text-anchor="end" class="small">gpt-5.4</text>
<circle cx="720.0" cy="322.1" r="12.4" fill="#11437e" fill-opacity="0.78" stroke="#111"/>
<text x="710.0" y="340.1" text-anchor="end" class="small">gemini-3.1-pro</text>
<circle cx="665.0" cy="310.0" r="12.2" fill="#124480" fill-opacity="0.78" stroke="#111"/>
<text x="675.0" y="300.0" text-anchor="start" class="small">kimi-k2-5</text>
<circle cx="782.0" cy="172.0" r="11.2" fill="#18518c" fill-opacity="0.78" stroke="#111"/>
<text x="772.0" y="190.0" text-anchor="end" class="small">ds-v4-pro</text>
<circle cx="353.0" cy="264.0" r="10.2" fill="#1f5d98" fill-opacity="0.78" stroke="#111"/>
<text x="363.0" y="254.0" text-anchor="start" class="small">ds-v3-2</text>
<circle cx="723.5" cy="172.0" r="10.2" fill="#1f5d98" fill-opacity="0.78" stroke="#111"/>
<text x="713.5" y="190.0" text-anchor="end" class="small">ds-v4-flash</text>
<circle cx="720.7" cy="131.1" r="8.5" fill="#2870ab" fill-opacity="0.78" stroke="#111"/>
<text x="710.7" y="121.1" text-anchor="end" class="small">gpt-4o</text>
<circle cx="626.0" cy="126.0" r="8.1" fill="#2b76b1" fill-opacity="0.78" stroke="#111"/>
<text x="636.0" y="144.0" text-anchor="start" class="small">gpt-4o-mini</text>
</svg>
