<svg xmlns="http://www.w3.org/2000/svg" width="1120" height="1014" viewBox="0 0 1120 1014">
<style>
text{font-family:Arial,Helvetica,sans-serif;fill:#222}
.title{font-size:22px;font-weight:700}
.subtitle{font-size:12px;fill:#555}
.axis{font-size:11px;fill:#555}
.label{font-size:12px}
.small{font-size:10px;fill:#444}
.grid{stroke:#ddd;stroke-width:1}
</style>
<text x="28" y="32" class="title">Naive Models: Core Metric Bars</text>
<text x="28" y="52" class="subtitle">Sorted by ASR descending. Lower ASR/SVR is safer; higher TSR/STCR is better.</text>
<line x1="220.0" y1="72" x2="220.0" y2="966" class="grid"/>
<text x="220.0" y="988" text-anchor="middle" class="axis">0</text>
<line x1="303.0" y1="72" x2="303.0" y2="966" class="grid"/>
<text x="303.0" y="988" text-anchor="middle" class="axis">10</text>
<line x1="386.0" y1="72" x2="386.0" y2="966" class="grid"/>
<text x="386.0" y="988" text-anchor="middle" class="axis">20</text>
<line x1="469.0" y1="72" x2="469.0" y2="966" class="grid"/>
<text x="469.0" y="988" text-anchor="middle" class="axis">30</text>
<line x1="552.0" y1="72" x2="552.0" y2="966" class="grid"/>
<text x="552.0" y="988" text-anchor="middle" class="axis">40</text>
<line x1="635.0" y1="72" x2="635.0" y2="966" class="grid"/>
<text x="635.0" y="988" text-anchor="middle" class="axis">50</text>
<line x1="718.0" y1="72" x2="718.0" y2="966" class="grid"/>
<text x="718.0" y="988" text-anchor="middle" class="axis">60</text>
<line x1="801.0" y1="72" x2="801.0" y2="966" class="grid"/>
<text x="801.0" y="988" text-anchor="middle" class="axis">70</text>
<line x1="884.0" y1="72" x2="884.0" y2="966" class="grid"/>
<text x="884.0" y="988" text-anchor="middle" class="axis">80</text>
<line x1="967.0" y1="72" x2="967.0" y2="966" class="grid"/>
<text x="967.0" y="988" text-anchor="middle" class="axis">90</text>
<line x1="1050.0" y1="72" x2="1050.0" y2="966" class="grid"/>
<text x="1050.0" y="988" text-anchor="middle" class="axis">100</text>
<text x="635.0" y="1006" text-anchor="middle" class="label">Metric value (%)</text>
<rect x="220" y="66" width="16" height="10" fill="#d73027" rx="2"/>
<text x="242" y="75" class="small">ASR</text>
<rect x="302" y="66" width="16" height="10" fill="#f46d43" rx="2"/>
<text x="324" y="75" class="small">SVR</text>
<rect x="384" y="66" width="16" height="10" fill="#1a9850" rx="2"/>
<text x="406" y="75" class="small">TSR</text>
<rect x="466" y="66" width="16" height="10" fill="#4575b4" rx="2"/>
<text x="488" y="75" class="small">STCR</text>
<text x="36" y="123" class="label">gemini-3-1-flash-lite-previ…</text>
<text x="36" y="139" class="small">n=154/155</text>
<rect x="220" y="92" width="542.7" height="12" fill="#d73027" rx="3"/>
<text x="768.7" y="102" text-anchor="start" class="small" fill="#222">ASR 65.4% (68/104)</text>
<rect x="220" y="108" width="382.7" height="12" fill="#f46d43" rx="3"/>
<text x="608.7" y="118" text-anchor="start" class="small" fill="#222">SVR 46.1% (71/154)</text>
<rect x="220" y="124" width="528.2" height="12" fill="#1a9850" rx="3"/>
<text x="754.2" y="134" text-anchor="start" class="small" fill="#222">TSR 63.6% (98/154)</text>
<rect x="220" y="140" width="269.5" height="12" fill="#4575b4" rx="3"/>
<text x="495.5" y="150" text-anchor="start" class="small" fill="#222">STCR 32.5% (50/154)</text>
<text x="36" y="195" class="label">gemini-3-flash-preview</text>
<text x="36" y="211" class="small">n=154/155</text>
<rect x="220" y="164" width="486.8" height="12" fill="#d73027" rx="3"/>
<text x="712.8" y="174" text-anchor="start" class="small" fill="#222">ASR 58.7% (61/104)</text>
<rect x="220" y="180" width="334.2" height="12" fill="#f46d43" rx="3"/>
<text x="560.2" y="190" text-anchor="start" class="small" fill="#222">SVR 40.3% (62/154)</text>
<rect x="220" y="196" width="641.4" height="12" fill="#1a9850" rx="3"/>
<text x="867.4" y="206" text-anchor="start" class="small" fill="#222">TSR 77.3% (119/154)</text>
<rect x="220" y="212" width="355.7" height="12" fill="#4575b4" rx="3"/>
<text x="581.7" y="222" text-anchor="start" class="small" fill="#222">STCR 42.9% (66/154)</text>
<text x="36" y="267" class="label">ds-v4-flash</text>
<text x="36" y="283" class="small">n=154/155</text>
<rect x="220" y="236" width="450.6" height="12" fill="#d73027" rx="3"/>
<text x="676.6" y="246" text-anchor="start" class="small" fill="#222">ASR 54.3% (57/105)</text>
<rect x="220" y="252" width="334.2" height="12" fill="#f46d43" rx="3"/>
<text x="560.2" y="262" text-anchor="start" class="small" fill="#222">SVR 40.3% (62/154)</text>
<rect x="220" y="268" width="733.0" height="12" fill="#1a9850" rx="3"/>
<text x="959.0" y="278" text-anchor="start" class="small" fill="#222">TSR 88.3% (136/154)</text>
<rect x="220" y="284" width="388.1" height="12" fill="#4575b4" rx="3"/>
<text x="614.1" y="294" text-anchor="start" class="small" fill="#222">STCR 46.8% (72/154)</text>
<text x="36" y="339" class="label">gpt-5-mini</text>
<text x="36" y="355" class="small">n=155/155</text>
<rect x="220" y="308" width="339.9" height="12" fill="#d73027" rx="3"/>
<text x="565.9" y="318" text-anchor="start" class="small" fill="#222">ASR 41.0% (43/105)</text>
<rect x="220" y="324" width="267.7" height="12" fill="#f46d43" rx="3"/>
<text x="493.7" y="334" text-anchor="start" class="small" fill="#222">SVR 32.3% (50/155)</text>
<rect x="220" y="340" width="567.6" height="12" fill="#1a9850" rx="3"/>
<text x="793.6" y="350" text-anchor="start" class="small" fill="#222">TSR 68.4% (106/155)</text>
<rect x="220" y="356" width="374.8" height="12" fill="#4575b4" rx="3"/>
<text x="600.8" y="366" text-anchor="start" class="small" fill="#222">STCR 45.2% (70/155)</text>
<text x="36" y="411" class="label">ds-v4-pro</text>
<text x="36" y="427" class="small">n=155/155</text>
<rect x="220" y="380" width="332.0" height="12" fill="#d73027" rx="3"/>
<text x="558.0" y="390" text-anchor="start" class="small" fill="#222">ASR 40.0% (42/105)</text>
<rect x="220" y="396" width="257.0" height="12" fill="#f46d43" rx="3"/>
<text x="483.0" y="406" text-anchor="start" class="small" fill="#222">SVR 31.0% (48/155)</text>
<rect x="220" y="412" width="685.4" height="12" fill="#1a9850" rx="3"/>
<text x="911.4" y="422" text-anchor="start" class="small" fill="#222">TSR 82.6% (128/155)</text>
<rect x="220" y="428" width="465.9" height="12" fill="#4575b4" rx="3"/>
<text x="691.9" y="438" text-anchor="start" class="small" fill="#222">STCR 56.1% (87/155)</text>
<text x="36" y="483" class="label">gemini-3.1-pro</text>
<text x="36" y="499" class="small">n=154/155</text>
<rect x="220" y="452" width="319.2" height="12" fill="#d73027" rx="3"/>
<text x="545.2" y="462" text-anchor="start" class="small" fill="#222">ASR 38.5% (40/104)</text>
<rect x="220" y="468" width="215.6" height="12" fill="#f46d43" rx="3"/>
<text x="441.6" y="478" text-anchor="start" class="small" fill="#222">SVR 26.0% (40/154)</text>
<rect x="220" y="484" width="695.3" height="12" fill="#1a9850" rx="3"/>
<text x="921.3" y="494" text-anchor="start" class="small" fill="#222">TSR 83.8% (129/154)</text>
<rect x="220" y="500" width="474.3" height="12" fill="#4575b4" rx="3"/>
<text x="700.3" y="510" text-anchor="start" class="small" fill="#222">STCR 57.1% (88/154)</text>
<text x="36" y="555" class="label">grok-4</text>
<text x="36" y="571" class="small">n=131/155</text>
<rect x="220" y="524" width="307.1" height="12" fill="#d73027" rx="3"/>
<text x="533.1" y="534" text-anchor="start" class="small" fill="#222">ASR 37.0% (37/100)</text>
<rect x="220" y="540" width="234.4" height="12" fill="#f46d43" rx="3"/>
<text x="460.4" y="550" text-anchor="start" class="small" fill="#222">SVR 28.2% (37/131)</text>
<rect x="220" y="556" width="639.9" height="12" fill="#1a9850" rx="3"/>
<text x="865.9" y="566" text-anchor="start" class="small" fill="#222">TSR 77.1% (101/131)</text>
<rect x="220" y="572" width="443.5" height="12" fill="#4575b4" rx="3"/>
<text x="669.5" y="582" text-anchor="start" class="small" fill="#222">STCR 53.4% (70/131)</text>
<text x="36" y="627" class="label">gpt-5</text>
<text x="36" y="643" class="small">n=151/155</text>
<rect x="220" y="596" width="209.5" height="12" fill="#d73027" rx="3"/>
<text x="435.5" y="606" text-anchor="start" class="small" fill="#222">ASR 25.2% (26/103)</text>
<rect x="220" y="612" width="159.4" height="12" fill="#f46d43" rx="3"/>
<text x="385.4" y="622" text-anchor="start" class="small" fill="#222">SVR 19.2% (29/151)</text>
<rect x="220" y="628" width="593.6" height="12" fill="#1a9850" rx="3"/>
<text x="819.6" y="638" text-anchor="start" class="small" fill="#222">TSR 71.5% (108/151)</text>
<rect x="220" y="644" width="527.7" height="12" fill="#4575b4" rx="3"/>
<text x="753.7" y="654" text-anchor="start" class="small" fill="#222">STCR 63.6% (96/151)</text>
<text x="36" y="699" class="label">claude-sonnet-4-6</text>
<text x="36" y="715" class="small">n=155/155</text>
<rect x="220" y="668" width="205.5" height="12" fill="#d73027" rx="3"/>
<text x="431.5" y="678" text-anchor="start" class="small" fill="#222">ASR 24.8% (26/105)</text>
<rect x="220" y="684" width="182.1" height="12" fill="#f46d43" rx="3"/>
<text x="408.1" y="694" text-anchor="start" class="small" fill="#222">SVR 21.9% (34/155)</text>
<rect x="220" y="700" width="685.4" height="12" fill="#1a9850" rx="3"/>
<text x="911.4" y="710" text-anchor="start" class="small" fill="#222">TSR 82.6% (128/155)</text>
<rect x="220" y="716" width="551.5" height="12" fill="#4575b4" rx="3"/>
<text x="777.5" y="726" text-anchor="start" class="small" fill="#222">STCR 66.5% (103/155)</text>
<text x="36" y="771" class="label">gpt-5-2</text>
<text x="36" y="787" class="small">n=155/155</text>
<rect x="220" y="740" width="158.1" height="12" fill="#d73027" rx="3"/>
<text x="384.1" y="750" text-anchor="start" class="small" fill="#222">ASR 19.0% (20/105)</text>
<rect x="220" y="756" width="123.2" height="12" fill="#f46d43" rx="3"/>
<text x="349.2" y="766" text-anchor="start" class="small" fill="#222">SVR 14.8% (23/155)</text>
<rect x="220" y="772" width="610.5" height="12" fill="#1a9850" rx="3"/>
<text x="836.5" y="782" text-anchor="start" class="small" fill="#222">TSR 73.5% (114/155)</text>
<rect x="220" y="788" width="519.4" height="12" fill="#4575b4" rx="3"/>
<text x="745.4" y="798" text-anchor="start" class="small" fill="#222">STCR 62.6% (97/155)</text>
<text x="36" y="843" class="label">claude-opus-4.6</text>
<text x="36" y="859" class="small">n=155/155</text>
<rect x="220" y="812" width="87.0" height="12" fill="#d73027" rx="3"/>
<text x="313.0" y="822" text-anchor="start" class="small" fill="#222">ASR 10.5% (11/105)</text>
<rect x="220" y="828" width="91.0" height="12" fill="#f46d43" rx="3"/>
<text x="317.0" y="838" text-anchor="start" class="small" fill="#222">SVR 11.0% (17/155)</text>
<rect x="220" y="844" width="712.2" height="12" fill="#1a9850" rx="3"/>
<text x="938.2" y="854" text-anchor="start" class="small" fill="#222">TSR 85.8% (133/155)</text>
<rect x="220" y="860" width="605.1" height="12" fill="#4575b4" rx="3"/>
<text x="831.1" y="870" text-anchor="start" class="small" fill="#222">STCR 72.9% (113/155)</text>
<text x="36" y="915" class="label">gpt-5-5</text>
<text x="36" y="931" class="small">n=155/155</text>
<rect x="220" y="884" width="63.2" height="12" fill="#d73027" rx="3"/>
<text x="289.2" y="894" text-anchor="start" class="small" fill="#222">ASR 7.6% (8/105)</text>
<rect x="220" y="900" width="48.2" height="12" fill="#f46d43" rx="3"/>
<text x="274.2" y="910" text-anchor="start" class="small" fill="#222">SVR 5.8% (9/155)</text>
<rect x="220" y="916" width="717.5" height="12" fill="#1a9850" rx="3"/>
<text x="943.5" y="926" text-anchor="start" class="small" fill="#222">TSR 86.5% (134/155)</text>
<rect x="220" y="932" width="610.5" height="12" fill="#4575b4" rx="3"/>
<text x="836.5" y="942" text-anchor="start" class="small" fill="#222">STCR 73.5% (114/155)</text>
</svg>
